<?xml version="1.0" encoding="utf-8"?>
<!-- Generator: Adobe Illustrator 25.0.0, SVG Export Plug-In . SVG Version: 6.00 Build 0)  -->
<svg version="1.1" id="Layer_1" xmlns="http://www.w3.org/2000/svg" xmlns:xlink="http://www.w3.org/1999/xlink" x="0px" y="0px"
	 viewBox="0 0 1000 1000" style="enable-background:new 0 0 1000 1000;" xml:space="preserve">
<style type="text/css">
	.st0{fill:none;stroke:#111111;stroke-width:2;stroke-miterlimit:10;}
	.st1{fill:#111111;}
</style>
<ellipse transform="matrix(0.9804 -0.1971 0.1971 0.9804 -94.252 108.9559)" class="st0" cx="500.27" cy="528.01" rx="445.68" ry="96.88"/>
<polygon class="st1" points="137.84,194.64 126.03,173.05 104.44,161.24 126.03,149.43 137.84,127.84 149.65,149.43 171.24,161.24 
	149.65,173.05 "/>
<polygon class="st1" points="104.44,420.77 95.84,405.05 80.13,396.45 95.84,387.86 104.44,372.14 113.04,387.86 128.76,396.45 
	113.04,405.05 "/>
<polygon class="st1" points="828.46,872.41 819.86,856.69 804.15,848.09 819.86,839.49 828.46,823.77 837.06,839.49 852.78,848.09 
	837.06,856.69 "/>
</svg>
