<?xml version="1.0" encoding="utf-8"?>
<!-- Generator: Adobe Illustrator 25.0.0, SVG Export Plug-In . SVG Version: 6.00 Build 0)  -->
<svg version="1.1" id="Layer_1" xmlns="http://www.w3.org/2000/svg" xmlns:xlink="http://www.w3.org/1999/xlink" x="0px" y="0px"
	 viewBox="0 0 1000 1000" style="enable-background:new 0 0 1000 1000;" xml:space="preserve">
<style type="text/css">
	.st0{fill:#CEA62B;}
</style>
<g>
	<g>
		<path class="st0" d="M195.9,514.7c3.6,3.5,6.5,7.6,8.6,12.2c2.1,4.6,3.2,9.7,3.2,15.1c0,5.5-1.1,10.7-3.4,15.5
			c-2.3,4.8-5.3,8.9-9.2,12.3c-3.3,3-7.1,5.3-11.4,7s-8.8,2.6-13.6,2.6c1.9,0,3.6-0.3,5.2-1c1.6-0.7,3-1.6,4.2-2.8s2.1-2.6,2.8-4.2
			c0.7-1.6,1-3.3,1-5.1c0-1.9-0.4-3.7-1.2-5.4c-0.8-1.7-1.8-3.1-3.1-4.3c-0.2-0.2-0.3-0.3-0.5-0.4c-0.1-0.1-0.3-0.2-0.5-0.4
			c-7.4-6.1-13.9-11.5-19.5-16.2c-5.6-4.7-10.5-8.8-14.7-12.4c-4.2-3.5-7.7-6.6-10.6-9s-5.3-4.5-7.2-6c-4.4-3.7-7.1-5.9-7.9-6.7
			c-3.9-3.2-6.8-7.2-8.8-12c-2-4.8-3-9.8-3-15.2c0-5.5,1.1-10.7,3.3-15.5c2.2-4.8,5.3-9,9.2-12.5c3.3-3,7.1-5.3,11.4-6.9
			c4.2-1.7,8.8-2.5,13.6-2.5c-3.7,0-6.8,1.3-9.4,3.8s-3.8,5.7-3.8,9.4c0,1.9,0.4,3.7,1.2,5.4c0.8,1.7,1.8,3.1,3.1,4.3l0.8,0.8
			l17.2,14.3l39.4,33c0.6,0.5,1.1,1,1.7,1.5C194.8,513.7,195.4,514.2,195.9,514.7z M200.5,481.9L151,440.8h49.5V481.9z M128.3,536.4
			c2.9,0,5.8,0.6,8.4,1.7c2.6,1.1,4.9,2.6,6.9,4.6c1.9,1.9,3.5,4.2,4.6,6.9c1.1,2.6,1.7,5.4,1.7,8.4s-0.6,5.7-1.7,8.3
			s-2.6,4.8-4.6,6.8s-4.2,3.5-6.9,4.6c-2.6,1.2-5.4,1.7-8.4,1.7c-3,0-5.7-0.6-8.3-1.7s-4.8-2.7-6.8-4.6s-3.5-4.2-4.6-6.8
			c-1.2-2.6-1.7-5.4-1.7-8.3s0.6-5.8,1.7-8.4c1.2-2.6,2.7-4.9,4.6-6.9s4.2-3.5,6.8-4.6C122.5,537,125.3,536.4,128.3,536.4z"/>
	</g>
	<g>
		<path class="st0" d="M307.9,440.8h42.7v138.6h-42.7V440.8z M278.7,572.6c-2.8,2.2-5.9,3.9-9.2,5s-6.8,1.7-10.3,1.7
			c-4.4,0-8.6-0.8-12.4-2.5s-7.2-3.9-10.1-6.8c-2.9-2.9-5.1-6.2-6.8-10.1c-1.7-3.9-2.5-8-2.5-12.3V440.8h42.7v115.3l30.1-0.3
			L278.7,572.6z"/>
	</g>
	<g>
		<path class="st0" d="M507.4,579.7H457l-35.6-57l33.3-27.7L507.4,579.7z M504,440.9l-49.4,41.2v-41.2H504z M378.6,439.2l42.7-33.7
			v174.1h-42.7V439.2z"/>
	</g>
	<g>
		<path class="st0" d="M592.4,556.4l-20.7,16.2c-5.8,4.5-12.4,6.8-19.7,6.8c-4.3,0-8.5-0.8-12.3-2.5s-7.2-3.9-10.1-6.8
			c-2.9-2.9-5.1-6.2-6.8-10c-1.7-3.8-2.5-8-2.5-12.4v-8V435.4v-30.1H563v30.1v104.2v16.8L592.4,556.4L592.4,556.4z"/>
	</g>
	<g>
		<path class="st0" d="M746.3,556L725.9,572c-5.7,4.4-12.2,6.7-19.5,6.7c-4.3,0-8.4-0.8-12.3-2.5s-7.2-3.9-10-6.8
			c-2.9-2.9-5.1-6.2-6.8-10c-1.7-3.8-2.5-7.9-2.5-12.3v-67.2v-16.5v-20.8c3.4-1.4,7.1-2.1,11-2.1c4.3,0,8.4,0.8,12.3,2.5
			c3.8,1.7,7.2,3.9,10,6.8c2.9,2.9,5.1,6.2,6.8,10.1s2.5,8,2.5,12.3v52.8V556L746.3,556L746.3,556z M668.2,505.2
			c-3.8,1.7-7.2,3.7-10.4,6.1c-3.1,2.4-5.8,5.1-8,8.1s-4,6.2-5.2,9.7c-1.2,3.5-1.9,7.1-1.9,10.9s0.6,7.4,1.9,10.9
			c1.2,3.5,3,6.7,5.2,9.7c2.2,3,4.9,5.7,8,8.1c3.1,2.4,6.6,4.4,10.4,6.1c-6.8,2.9-14,4.3-21.8,4.3c-6.6,0-12.7-1-18.4-3
			c-5.7-2-10.7-4.8-15-8.4c-4.3-3.5-7.7-7.7-10.1-12.4c-2.5-4.7-3.7-9.8-3.7-15.2c0-5.4,1.2-10.4,3.7-15.2s5.8-8.9,10.1-12.5
			s9.3-6.3,15-8.4c5.7-2,11.8-3,18.4-3C654.2,500.9,661.5,502.4,668.2,505.2z M634.8,483.9c-3,0-5.8-0.6-8.4-1.7
			c-2.6-1.2-4.9-2.7-6.9-4.6s-3.5-4.2-4.6-6.9c-1.2-2.6-1.7-5.4-1.7-8.4s0.6-5.8,1.7-8.4s2.7-4.9,4.6-6.9c1.9-1.9,4.2-3.5,6.9-4.6
			s5.4-1.7,8.4-1.7c3,0,5.8,0.5,8.4,1.7s4.9,2.6,6.9,4.6c1.9,1.9,3.5,4.2,4.6,6.9c1.2,2.6,1.7,5.4,1.7,8.4s-0.6,5.8-1.7,8.4
			c-1.2,2.6-2.7,4.9-4.6,6.9s-4.2,3.5-6.9,4.6C640.6,483.3,637.8,483.9,634.8,483.9z"/>
	</g>
	<g>
		<path class="st0" d="M893.5,556L873.1,572c-5.7,4.4-12.2,6.7-19.5,6.7c-4.3,0-8.4-0.8-12.3-2.5s-7.2-3.9-10-6.8
			c-2.9-2.9-5.1-6.2-6.8-10c-1.7-3.8-2.5-7.9-2.5-12.3v-67.2v-16.5v-20.8c3.4-1.4,7.1-2.1,11-2.1c4.3,0,8.4,0.8,12.3,2.5
			c3.8,1.7,7.2,3.9,10,6.8c2.9,2.9,5.1,6.2,6.8,10.1s2.5,8,2.5,12.3v52.8V556L893.5,556L893.5,556z M815.5,505.2
			c-3.8,1.7-7.3,3.7-10.4,6.1c-3.1,2.4-5.8,5.1-8,8.1s-4,6.2-5.2,9.7c-1.2,3.5-1.9,7.1-1.9,10.9s0.6,7.4,1.9,10.9
			c1.2,3.5,3,6.7,5.2,9.7c2.2,3,4.9,5.7,8,8.1c3.1,2.4,6.6,4.4,10.4,6.1c-6.8,2.9-14,4.3-21.8,4.3c-6.6,0-12.7-1-18.4-3
			c-5.7-2-10.7-4.8-15-8.4c-4.3-3.5-7.7-7.7-10.1-12.4c-2.5-4.7-3.7-9.8-3.7-15.2c0-5.4,1.2-10.4,3.7-15.2s5.8-8.9,10.1-12.5
			s9.3-6.3,15-8.4c5.7-2,11.8-3,18.4-3C801.5,500.9,808.7,502.4,815.5,505.2z M782,483.9c-3,0-5.8-0.6-8.4-1.7
			c-2.6-1.2-4.9-2.7-6.9-4.6s-3.5-4.2-4.6-6.9c-1.2-2.6-1.7-5.4-1.7-8.4s0.6-5.8,1.7-8.4s2.7-4.9,4.6-6.9c1.9-1.9,4.2-3.5,6.9-4.6
			c2.6-1.1,5.4-1.7,8.4-1.7c3,0,5.8,0.5,8.4,1.7s4.9,2.6,6.9,4.6c1.9,1.9,3.5,4.2,4.6,6.9c1.2,2.6,1.7,5.4,1.7,8.4s-0.6,5.8-1.7,8.4
			c-1.2,2.6-2.7,4.9-4.6,6.9s-4.2,3.5-6.9,4.6C787.8,483.3,785,483.9,782,483.9z"/>
	</g>
</g>
</svg>
