<?xml version="1.0" encoding="utf-8"?>
<!-- Generator: Adobe Illustrator 25.0.0, SVG Export Plug-In . SVG Version: 6.00 Build 0)  -->
<svg version="1.1" id="Layer_1" xmlns="http://www.w3.org/2000/svg" xmlns:xlink="http://www.w3.org/1999/xlink" x="0px" y="0px"
	 viewBox="0 0 1000 1000" style="enable-background:new 0 0 1000 1000;" xml:space="preserve">
<style type="text/css">
	.st0{fill:#CEA62B;}
</style>
<g>
	<g>
		<g>
			<path class="st0" d="M614.31,580.98c-31.48,0-53.48-12.33-55.02-13.22l-3.49-2.02l-0.99-3.91
				c-16.78-66.21,49.58-139.76,52.41-142.86c83.82-94.74,167.82-41.34,168.66-40.79l4.37,2.87l-0.06,5.22
				c-1.28,111.51-79.95,162.28-87.85,167.09C664.16,574.67,636.81,580.97,614.31,580.98z M572.4,553
				c13.05,6.01,59.21,22.6,108.78-15.15l0.95-0.63c3.1-1.84,75.08-45.71,78.82-145.57c-16.67-8.49-76.51-31.15-139.54,40.09
				C620.7,432.52,562.03,497.63,572.4,553z"/>
		</g>
		<g>
			
				<rect x="532.51" y="463.27" transform="matrix(0.7662 -0.6427 0.6427 0.7662 -147.8072 539.4367)" class="st0" width="269.65" height="19.1"/>
		</g>
		<g>
			<path class="st0" d="M566.64,569.33l-2.47-18.93c133.15-17.38,197.45-164.85,198.09-166.33l17.57,7.49
				C777.06,398.03,710.5,550.56,566.64,569.33z"/>
		</g>
		<g>
			<path class="st0" d="M572.72,558.87l-18.55-4.51c32.72-134.61,203.78-177.54,211.04-179.31l4.5,18.56
				C768.05,394.02,602.67,435.64,572.72,558.87z"/>
		</g>
	</g>
	<g>
		<g>
			<path class="st0" d="M497.98,457.26l-3.63-1.75c-61.52-29.72-75.16-127.83-75.71-131.99c-18.72-125.11,76.23-155.11,77.19-155.39
				l5-1.5l3.96,3.41c84.57,72.67,72.88,165.54,71.48,174.7c-4.28,84.61-71.64,110.11-74.5,111.16L497.98,457.26z M496.54,188.21
				c-17.22,7.3-73.07,38.57-59,132.64c0.14,1.05,12.28,87.85,61.37,115.5c12.98-6.13,55.37-30.82,58.32-93.06l0.12-1.13
				C557.93,338.6,570.61,255.27,496.54,188.21z"/>
		</g>
		<g>
			<rect x="488.99" y="177.27" class="st0" width="19.09" height="269.64"/>
		</g>
		<g>
			<path class="st0" d="M507.7,451.27l-16.09-10.28c72.29-113.16,0.68-257.22-0.05-258.66l17.03-8.65
				C511.78,179.97,585.81,329.01,507.7,451.27z"/>
		</g>
		<g>
			<path class="st0" d="M488.21,451.21c-82.07-111.61-4.98-270.23-1.66-276.93l17.11,8.48c-0.76,1.54-75.2,154.96-0.07,257.14
				L488.21,451.21z"/>
		</g>
	</g>
	<g>
		<path class="st0" d="M500.57,833.38c-20.34,0-35.1-9.15-35.1-21.76V489.54c0-12.6,14.76-21.74,35.1-21.74
			c20.35,0,35.12,9.14,35.12,21.74v322.07C535.7,824.22,520.93,833.38,500.57,833.38z M484.57,810.41
			c1.65,1.32,7.12,3.88,16.01,3.88c8.9,0,14.38-2.55,16.03-3.87V490.76c-1.66-1.32-7.14-3.86-16.03-3.86
			c-8.87,0-14.35,2.54-16.01,3.86V810.41z"/>
	</g>
	<g>
		<g>
			<path class="st0" d="M385.71,580.98c-22.51,0-49.85-6.31-78.02-27.61c-7.9-4.82-86.56-55.59-87.85-167.09l-0.06-5.22l4.37-2.87
				c0.84-0.55,84.85-53.95,168.78,40.91c2.73,2.98,69.08,76.53,52.3,142.74l-0.99,3.91l-3.49,2.02
				C439.19,568.64,417.18,580.98,385.71,580.98z M239.06,391.65c3.76,99.85,75.72,143.73,78.84,145.58l0.93,0.62
				c49.55,37.72,95.7,21.17,108.78,15.15c10.4-55.49-48.29-120.48-48.9-121.15C315.59,360.51,255.72,383.16,239.06,391.65z"/>
		</g>
		<g>
			
				<rect x="323.12" y="337.99" transform="matrix(0.6427 -0.7661 0.7661 0.6427 -243.3731 423.775)" class="st0" width="19.1" height="269.66"/>
		</g>
		<g>
			<path class="st0" d="M433.38,569.33c-143.86-18.77-210.41-171.3-213.17-177.78l17.56-7.49c0.64,1.49,65.15,148.99,198.07,166.34
				L433.38,569.33z"/>
		</g>
		<g>
			<path class="st0" d="M427.29,558.87C397.34,435.64,231.97,394.02,230.3,393.62l4.5-18.56c7.27,1.76,178.33,44.7,211.04,179.31
				L427.29,558.87z"/>
		</g>
	</g>
	<g>
		<g>
			<path class="st0" d="M606.54,793.47c-31.48,0-53.48-12.34-55.03-13.23l-3.49-2.02l-0.99-3.91
				c-16.77-66.22,49.58-139.75,52.41-142.85c83.82-94.76,167.81-41.34,168.65-40.79l4.37,2.87l-0.06,5.22
				c-1.27,111.5-79.94,162.29-87.84,167.11C656.38,787.16,629.04,793.47,606.54,793.47z M564.63,765.49
				c13.03,6,59.19,22.6,108.77-15.14l0.95-0.63c3.1-1.84,75.09-45.72,78.81-145.58c-16.66-8.49-76.51-31.15-139.53,40.1
				C612.92,645.01,554.27,710.11,564.63,765.49z"/>
		</g>
		<g>
			
				<rect x="524.74" y="675.76" transform="matrix(0.7662 -0.6427 0.6427 0.7662 -286.1818 584.1254)" class="st0" width="269.64" height="19.1"/>
		</g>
		<g>
			<path class="st0" d="M558.86,781.82l-2.47-18.93c133.15-17.38,197.44-164.84,198.08-166.33l17.57,7.49
				C769.27,610.53,702.72,763.04,558.86,781.82z"/>
		</g>
		<g>
			<path class="st0" d="M564.94,771.36l-18.56-4.51c32.72-134.62,203.78-177.54,211.04-179.3l4.5,18.56
				C760.27,606.52,594.89,648.12,564.94,771.36z"/>
		</g>
	</g>
	<g>
		<g>
			<path class="st0" d="M390.56,793.47c-22.5,0-49.84-6.3-78.01-27.61c-7.9-4.82-86.57-55.6-87.84-167.11l-0.06-5.22l4.37-2.87
				c0.84-0.55,84.86-53.95,168.76,40.91c2.73,2.98,69.07,76.52,52.29,142.74l-0.99,3.91l-3.49,2.01
				C444.05,781.13,422.04,793.47,390.56,793.47z M243.94,604.13c3.73,99.86,75.71,143.74,78.83,145.59l0.93,0.62
				c49.55,37.73,95.7,21.16,108.78,15.14c10.37-55.38-48.29-120.48-48.9-121.15C320.48,573,260.6,595.64,243.94,604.13z"/>
		</g>
		<g>
			
				<rect x="327.99" y="550.49" transform="matrix(0.6428 -0.7661 0.7661 0.6428 -404.4062 503.3834)" class="st0" width="19.1" height="269.64"/>
		</g>
		<g>
			<path class="st0" d="M438.24,781.82c-143.86-18.77-210.42-171.29-213.18-177.77l17.56-7.49c0.64,1.49,65.17,148.98,198.09,166.33
				L438.24,781.82z"/>
		</g>
		<g>
			<path class="st0" d="M432.17,771.36c-30-123.43-195.33-164.85-197-165.25l4.5-18.56c7.27,1.76,178.33,44.68,211.05,179.3
				L432.17,771.36z"/>
		</g>
	</g>
</g>
</svg>
