<?xml version="1.0" encoding="utf-8"?>
<!-- Generator: Adobe Illustrator 25.0.0, SVG Export Plug-In . SVG Version: 6.00 Build 0)  -->
<svg version="1.1" id="Layer_1" xmlns="http://www.w3.org/2000/svg" xmlns:xlink="http://www.w3.org/1999/xlink" x="0px" y="0px"
	 viewBox="0 0 1000 1000" style="enable-background:new 0 0 1000 1000;" xml:space="preserve">
<style type="text/css">
	.st0{fill:#CEA62B;}
</style>
<g>
	<g>
		<g>
			<g>
				<path class="st0" d="M195.91,612.26c3.61,3.51,6.47,7.58,8.6,12.2c2.12,4.62,3.19,9.66,3.19,15.11c0,5.55-1.13,10.72-3.4,15.53
					c-2.26,4.8-5.34,8.92-9.22,12.34c-3.33,2.96-7.12,5.29-11.37,7c-4.25,1.71-8.78,2.56-13.58,2.56c1.85,0,3.58-0.34,5.2-1.04
					c1.62-0.69,3.03-1.64,4.23-2.84c1.2-1.2,2.15-2.58,2.84-4.16c0.69-1.57,1.04-3.28,1.04-5.13c0-1.94-0.4-3.74-1.18-5.41
					c-0.79-1.66-1.83-3.1-3.12-4.3c-0.19-0.19-0.34-0.32-0.48-0.42c-0.14-0.09-0.3-0.23-0.49-0.42c-7.4-6.1-13.89-11.51-19.48-16.22
					c-5.59-4.71-10.49-8.85-14.69-12.41c-4.2-3.55-7.74-6.56-10.61-9.01c-2.87-2.45-5.27-4.46-7.21-6.03
					c-4.44-3.7-7.07-5.92-7.9-6.66c-3.88-3.23-6.82-7.23-8.8-11.99c-1.99-4.76-2.98-9.82-2.98-15.18c0-5.55,1.11-10.72,3.33-15.53
					c2.22-4.8,5.27-8.96,9.15-12.48c3.33-2.95,7.12-5.27,11.37-6.93c4.25-1.66,8.78-2.5,13.59-2.5c-3.7,0-6.82,1.27-9.36,3.81
					c-2.54,2.54-3.81,5.66-3.81,9.36c0,1.94,0.39,3.74,1.18,5.41c0.78,1.66,1.82,3.1,3.12,4.3l0.83,0.83l17.19,14.28l39.37,33
					c0.55,0.46,1.13,0.95,1.73,1.45C194.78,611.31,195.36,611.8,195.91,612.26z M200.49,579.54L151,538.37h49.49V579.54z
					 M128.26,634.02c2.95,0,5.75,0.56,8.39,1.66c2.64,1.11,4.92,2.64,6.86,4.57c1.94,1.94,3.47,4.23,4.57,6.86
					c1.11,2.64,1.66,5.43,1.66,8.39c0,2.96-0.55,5.73-1.66,8.32c-1.11,2.59-2.63,4.85-4.57,6.79c-1.94,1.94-4.23,3.49-6.86,4.64
					c-2.63,1.16-5.43,1.73-8.39,1.73c-2.96,0-5.73-0.57-8.32-1.73c-2.59-1.16-4.85-2.7-6.79-4.64c-1.94-1.94-3.49-4.2-4.64-6.79
					c-1.16-2.59-1.73-5.36-1.73-8.32c0-2.96,0.58-5.75,1.73-8.39c1.15-2.63,2.7-4.92,4.64-6.86c1.94-1.94,4.21-3.47,6.79-4.57
					C122.53,634.58,125.31,634.02,128.26,634.02z"/>
			</g>
			<g>
				<path class="st0" d="M307.93,538.37h42.7V677h-42.7V538.37z M278.68,670.24c-2.77,2.21-5.85,3.88-9.22,5.03
					c-3.37,1.15-6.82,1.72-10.33,1.72c-4.44,0-8.57-0.83-12.41-2.49c-3.84-1.66-7.19-3.93-10.05-6.79
					c-2.87-2.87-5.13-6.24-6.79-10.12c-1.66-3.88-2.49-7.99-2.49-12.34V538.37h42.7v115.34l30.08-0.28L278.68,670.24z"/>
			</g>
			<g>
				<path class="st0" d="M507.42,677.28h-50.46l-35.63-56.98l33.27-27.72L507.42,677.28z M503.95,538.51l-49.36,41.17v-41.17H503.95
					z M378.63,536.84l42.7-33.69v174.12h-42.7V536.84z"/>
			</g>
			<g>
				<path class="st0" d="M592.4,653.99l-20.66,16.22c-5.82,4.53-12.39,6.79-19.69,6.79c-4.34,0-8.46-0.83-12.34-2.49
					c-3.88-1.66-7.25-3.93-10.12-6.79c-2.87-2.87-5.13-6.22-6.79-10.05c-1.66-3.84-2.49-7.97-2.49-12.41v-8.04V532.96v-30.08h42.7
					v30.08v104.25v16.78H592.4z"/>
			</g>
			<g>
				<path class="st0" d="M746.28,653.57l-20.38,16.08c-5.73,4.44-12.24,6.65-19.55,6.65c-4.34,0-8.43-0.83-12.27-2.49
					c-3.84-1.66-7.19-3.93-10.05-6.79c-2.87-2.87-5.13-6.22-6.79-10.05c-1.66-3.84-2.49-7.93-2.49-12.27v-67.24v-16.5v-20.79
					c3.42-1.39,7.07-2.08,10.95-2.08c4.34,0,8.43,0.83,12.27,2.49c3.83,1.66,7.18,3.93,10.05,6.79c2.87,2.87,5.13,6.24,6.79,10.12
					c1.66,3.88,2.49,8,2.49,12.34v52.82v30.91H746.28z M668.22,602.83c-3.79,1.66-7.25,3.7-10.4,6.1c-3.14,2.4-5.82,5.1-8.04,8.11
					c-2.22,3.01-3.95,6.24-5.2,9.71c-1.25,3.47-1.87,7.09-1.87,10.88c0,3.79,0.62,7.41,1.87,10.88c1.25,3.47,2.98,6.7,5.2,9.7
					c2.22,3.01,4.9,5.71,8.04,8.11c3.14,2.4,6.61,4.44,10.4,6.1c-6.75,2.87-14,4.3-21.76,4.3c-6.57,0-12.69-1.02-18.37-3.05
					c-5.68-2.03-10.68-4.83-14.97-8.39c-4.3-3.55-7.67-7.69-10.12-12.41c-2.45-4.71-3.67-9.79-3.67-15.25
					c0-5.36,1.22-10.42,3.67-15.18c2.45-4.76,5.82-8.92,10.12-12.48c4.3-3.56,9.29-6.35,14.97-8.39c5.68-2.03,11.8-3.05,18.37-3.05
					C654.22,598.53,661.48,599.97,668.22,602.83z M634.82,581.48c-2.96,0-5.75-0.57-8.39-1.74c-2.64-1.15-4.92-2.7-6.86-4.64
					c-1.94-1.94-3.49-4.23-4.64-6.86c-1.16-2.64-1.73-5.43-1.73-8.39c0-2.96,0.57-5.75,1.73-8.39c1.16-2.64,2.7-4.92,4.64-6.87
					c1.94-1.94,4.23-3.47,6.86-4.57s5.43-1.66,8.39-1.66c2.95,0,5.75,0.55,8.39,1.66c2.64,1.11,4.92,2.64,6.86,4.57
					c1.94,1.94,3.49,4.23,4.64,6.87c1.15,2.63,1.73,5.43,1.73,8.39c0,2.96-0.58,5.75-1.73,8.39c-1.16,2.63-2.7,4.92-4.64,6.86
					c-1.94,1.94-4.23,3.49-6.86,4.64C640.57,580.91,637.77,581.48,634.82,581.48z"/>
			</g>
			<g>
				<path class="st0" d="M893.5,653.57l-20.38,16.08c-5.73,4.44-12.24,6.65-19.55,6.65c-4.34,0-8.43-0.83-12.27-2.49
					c-3.84-1.66-7.19-3.93-10.05-6.79c-2.87-2.87-5.13-6.22-6.79-10.05c-1.66-3.84-2.49-7.93-2.49-12.27v-67.24v-16.5v-20.79
					c3.42-1.39,7.07-2.08,10.95-2.08c4.34,0,8.43,0.83,12.27,2.49c3.83,1.66,7.18,3.93,10.05,6.79c2.87,2.87,5.13,6.24,6.79,10.12
					c1.66,3.88,2.49,8,2.49,12.34v52.82v30.91H893.5z M815.45,602.83c-3.79,1.66-7.26,3.7-10.4,6.1c-3.14,2.4-5.82,5.1-8.04,8.11
					c-2.22,3.01-3.95,6.24-5.2,9.71c-1.25,3.47-1.87,7.09-1.87,10.88c0,3.79,0.62,7.41,1.87,10.88c1.25,3.47,2.98,6.7,5.2,9.7
					c2.22,3.01,4.9,5.71,8.04,8.11c3.14,2.4,6.61,4.44,10.4,6.1c-6.75,2.87-14,4.3-21.76,4.3c-6.57,0-12.69-1.02-18.37-3.05
					c-5.68-2.03-10.68-4.83-14.97-8.39c-4.3-3.55-7.67-7.69-10.12-12.41c-2.45-4.71-3.67-9.79-3.67-15.25
					c0-5.36,1.22-10.42,3.67-15.18c2.45-4.76,5.82-8.92,10.12-12.48c4.3-3.56,9.29-6.35,14.97-8.39c5.68-2.03,11.8-3.05,18.37-3.05
					C801.45,598.53,808.71,599.97,815.45,602.83z M782.04,581.48c-2.96,0-5.75-0.57-8.39-1.74c-2.64-1.15-4.92-2.7-6.86-4.64
					c-1.94-1.94-3.49-4.23-4.64-6.86c-1.16-2.64-1.73-5.43-1.73-8.39c0-2.96,0.57-5.75,1.73-8.39c1.16-2.64,2.7-4.92,4.64-6.87
					c1.94-1.94,4.23-3.47,6.86-4.57c2.64-1.11,5.43-1.66,8.39-1.66c2.95,0,5.75,0.55,8.39,1.66c2.64,1.11,4.92,2.64,6.86,4.57
					c1.94,1.94,3.49,4.23,4.64,6.87c1.15,2.63,1.73,5.43,1.73,8.39c0,2.96-0.58,5.75-1.73,8.39c-1.16,2.63-2.7,4.92-4.64,6.86
					c-1.94,1.94-4.23,3.49-6.86,4.64C787.8,580.91,785,581.48,782.04,581.48z"/>
			</g>
		</g>
		<g>
			<g>
				<path class="st0" d="M194.23,727.66h1.46l21.54,52.83h-8.78l-8.29-20.32c-0.87,0-2.14,0-3.82,0c-1.68,0-3.41-0.02-5.2-0.04
					c-1.79-0.03-3.47-0.04-5.04-0.04c-1.57,0-2.63,0-3.17,0l-8.05,20.4h-1.38L194.23,727.66z M183.25,759.28h16.58l-8.46-20.73
					L183.25,759.28z"/>
			</g>
			<g>
				<path class="st0" d="M249.01,752.05c0-1.57-0.4-2.91-1.22-4.02c-0.81-1.11-1.81-1.98-3.01-2.6c-1.19-0.62-2.49-1-3.9-1.14
					c-1.41-0.13-2.71,0-3.9,0.41c-1.19,0.4-2.19,1.08-3.01,2.03c-0.81,0.95-1.22,2.18-1.22,3.7c0,1.14,0.54,2.13,1.63,2.97
					c1.08,0.84,2.44,1.66,4.06,2.48c1.62,0.82,3.37,1.64,5.24,2.48c1.87,0.84,3.62,1.8,5.24,2.89c1.63,1.08,2.98,2.33,4.07,3.74
					c1.08,1.41,1.62,3.06,1.62,4.96c0,2.33-0.74,4.29-2.23,5.89c-1.49,1.6-3.33,2.83-5.53,3.7c-2.19,0.87-4.59,1.33-7.19,1.38
					c-2.6,0.05-5.01-0.3-7.24-1.06c-2.22-0.76-4.08-1.96-5.56-3.62c-1.49-1.65-2.24-3.75-2.24-6.3h4.87c0,2.28,0.43,4.14,1.3,5.61
					c0.87,1.46,1.96,2.57,3.29,3.33c1.33,0.76,2.76,1.15,4.31,1.18c1.55,0.03,2.98-0.24,4.31-0.81c1.33-0.57,2.42-1.43,3.29-2.6
					c0.87-1.17,1.3-2.59,1.3-4.27c0-1.46-0.54-2.71-1.63-3.74c-1.08-1.03-2.44-1.98-4.06-2.85c-1.62-0.86-3.37-1.71-5.24-2.52
					c-1.87-0.82-3.62-1.71-5.24-2.68c-1.63-0.97-2.98-2.1-4.07-3.37c-1.08-1.27-1.62-2.8-1.62-4.59c0-2.06,0.69-3.79,2.07-5.2
					c1.38-1.41,3.13-2.48,5.24-3.21c2.11-0.73,4.39-1.11,6.83-1.14c2.44-0.03,4.72,0.29,6.83,0.93c2.11,0.65,3.87,1.65,5.28,3.01
					c1.41,1.35,2.11,3.03,2.11,5.04H249.01z"/>
			</g>
			<g>
				<path class="st0" d="M310.94,752.05c0-1.57-0.4-2.91-1.22-4.02c-0.81-1.11-1.81-1.98-3.01-2.6c-1.19-0.62-2.49-1-3.9-1.14
					c-1.41-0.13-2.71,0-3.9,0.41c-1.19,0.4-2.19,1.08-3.01,2.03c-0.81,0.95-1.22,2.18-1.22,3.7c0,1.14,0.54,2.13,1.63,2.97
					c1.08,0.84,2.44,1.66,4.06,2.48c1.62,0.82,3.37,1.64,5.24,2.48c1.87,0.84,3.62,1.8,5.24,2.89c1.63,1.08,2.98,2.33,4.07,3.74
					c1.08,1.41,1.62,3.06,1.62,4.96c0,2.33-0.74,4.29-2.24,5.89c-1.49,1.6-3.33,2.83-5.53,3.7c-2.19,0.87-4.59,1.33-7.19,1.38
					c-2.6,0.05-5.01-0.3-7.24-1.06c-2.22-0.76-4.08-1.96-5.56-3.62c-1.49-1.65-2.24-3.75-2.24-6.3h4.87c0,2.28,0.43,4.14,1.3,5.61
					c0.87,1.46,1.96,2.57,3.29,3.33c1.33,0.76,2.76,1.15,4.31,1.18c1.55,0.03,2.98-0.24,4.31-0.81c1.33-0.57,2.42-1.43,3.29-2.6
					c0.87-1.17,1.3-2.59,1.3-4.27c0-1.46-0.54-2.71-1.63-3.74c-1.08-1.03-2.44-1.98-4.06-2.85c-1.62-0.86-3.37-1.71-5.24-2.52
					c-1.87-0.82-3.62-1.71-5.24-2.68c-1.63-0.97-2.98-2.1-4.07-3.37c-1.08-1.27-1.62-2.8-1.62-4.59c0-2.06,0.69-3.79,2.07-5.2
					c1.38-1.41,3.13-2.48,5.24-3.21c2.11-0.73,4.39-1.11,6.83-1.14c2.44-0.03,4.72,0.29,6.83,0.93c2.11,0.65,3.87,1.65,5.28,3.01
					c1.41,1.35,2.11,3.03,2.11,5.04H310.94z"/>
			</g>
			<g>
				<path class="st0" d="M365.07,780.49h-1.55l-11.78-26.66l-11.87,26.66h-1.46l-16.26-36.58h8.94l11.79,26.5l11.79-26.5h1.46
					l11.78,26.66l11.87-26.66h1.54L365.07,780.49z"/>
			</g>
			<g>
				<path class="st0" d="M395.8,757.74c-0.16,1.3-0.24,2.65-0.24,4.06c0,3.79,0.6,6.87,1.79,9.23c1.19,2.35,2.68,4.09,4.47,5.2
					c1.79,1.11,3.73,1.65,5.81,1.62c2.08-0.03,4.02-0.53,5.81-1.5c1.79-0.97,3.28-2.36,4.47-4.14c1.19-1.79,1.79-3.9,1.79-6.34h0.81
					c0,3.41-0.81,6.25-2.44,8.5c-1.62,2.25-3.67,3.9-6.14,4.96c-2.47,1.06-5.12,1.5-7.97,1.34c-2.84-0.16-5.5-0.96-7.97-2.4
					c-2.47-1.43-4.51-3.52-6.14-6.26c-1.62-2.74-2.44-6.14-2.44-10.2c0-3.9,0.8-7.18,2.4-9.83c1.6-2.65,3.59-4.67,5.98-6.05
					c2.38-1.38,4.98-2.15,7.8-2.32c2.81-0.16,5.43,0.26,7.84,1.26c2.41,1,4.43,2.59,6.06,4.75c1.62,2.17,2.47,4.88,2.52,8.13H395.8z
					 M412.54,756.43c-0.11-2.55-0.54-4.7-1.3-6.46c-0.76-1.76-1.68-3.09-2.77-3.98c-1.09-0.9-2.28-1.36-3.58-1.38
					c-1.3-0.03-2.55,0.38-3.74,1.22c-1.19,0.84-2.25,2.14-3.17,3.9c-0.92,1.76-1.6,4-2.04,6.71H412.54z"/>
			</g>
			<g>
				<path class="st0" d="M437,757.74c-0.16,1.3-0.24,2.65-0.24,4.06c0,3.79,0.6,6.87,1.79,9.23c1.19,2.35,2.68,4.09,4.47,5.2
					c1.79,1.11,3.73,1.65,5.81,1.62c2.08-0.03,4.02-0.53,5.81-1.5c1.79-0.97,3.28-2.36,4.47-4.14c1.19-1.79,1.79-3.9,1.79-6.34h0.81
					c0,3.41-0.81,6.25-2.44,8.5c-1.62,2.25-3.67,3.9-6.13,4.96c-2.47,1.06-5.12,1.5-7.97,1.34c-2.84-0.16-5.5-0.96-7.97-2.4
					c-2.47-1.43-4.51-3.52-6.14-6.26c-1.62-2.74-2.44-6.14-2.44-10.2c0-3.9,0.8-7.18,2.4-9.83c1.6-2.65,3.59-4.67,5.98-6.05
					c2.38-1.38,4.98-2.15,7.8-2.32c2.81-0.16,5.43,0.26,7.84,1.26c2.41,1,4.43,2.59,6.06,4.75c1.62,2.17,2.46,4.88,2.52,8.13H437z
					 M453.74,756.43c-0.11-2.55-0.54-4.7-1.3-6.46c-0.76-1.76-1.68-3.09-2.77-3.98c-1.09-0.9-2.28-1.36-3.58-1.38
					c-1.3-0.03-2.55,0.38-3.74,1.22c-1.19,0.84-2.25,2.14-3.17,3.9c-0.92,1.76-1.6,4-2.04,6.71H453.74z"/>
			</g>
			<g>
				<path class="st0" d="M467.4,744.57v-0.81c1.35,0,2.68-0.35,3.98-1.06c1.3-0.7,2.45-1.59,3.46-2.64c1-1.06,1.8-2.19,2.4-3.41
					c0.59-1.22,0.89-2.32,0.89-3.29h1.22v10.41h4.71v0.81h-4.71v28.61c0,2.38,0.54,4.09,1.62,5.12c1.08,1.03,2.44,1.19,4.06,0.49
					v0.81c0,0.06-0.34,0.19-1.02,0.4c-0.68,0.22-1.52,0.38-2.52,0.49c-1.01,0.11-2.1,0.05-3.29-0.16c-1.19-0.21-2.31-0.74-3.33-1.58
					c-1.03-0.84-1.9-2.08-2.6-3.7c-0.7-1.63-1.06-3.79-1.06-6.5v-23.98H467.4z"/>
			</g>
			<g>
				<path class="st0" d="M549.41,744h8.13v36.5h-8.13v-9.59c-0.87,2.49-2.27,4.51-4.19,6.05c-1.92,1.55-4.09,2.6-6.5,3.17
					c-2.41,0.57-4.9,0.62-7.48,0.16c-2.57-0.46-4.91-1.45-7.03-2.97c-2.11-1.52-3.86-3.56-5.25-6.14c-1.38-2.58-2.07-5.7-2.07-9.39
					c0-3.68,0.69-6.81,2.07-9.39c1.38-2.57,3.13-4.62,5.25-6.14c2.11-1.52,4.46-2.52,7.03-3.01c2.57-0.49,5.07-0.46,7.48,0.08
					c2.41,0.54,4.58,1.58,6.5,3.13c1.92,1.55,3.32,3.56,4.19,6.06V744z M525.03,761.8c0,4.34,0.6,7.78,1.79,10.32
					c1.19,2.55,2.7,4.37,4.51,5.49c1.82,1.11,3.78,1.58,5.89,1.42c2.11-0.16,4.06-0.82,5.85-1.99c1.79-1.16,3.28-2.72,4.47-4.68
					c1.19-1.95,1.79-4.14,1.79-6.58l0.08-7.48c0.11-2.49-0.42-4.75-1.59-6.79c-1.16-2.03-2.65-3.65-4.47-4.87
					c-1.82-1.22-3.78-1.94-5.89-2.15c-2.12-0.22-4.09,0.21-5.93,1.3c-1.84,1.08-3.39,2.93-4.63,5.53
					C525.65,753.91,525.03,757.41,525.03,761.8z"/>
			</g>
			<g>
				<path class="st0" d="M592.24,752.05c0-1.57-0.4-2.91-1.22-4.02c-0.81-1.11-1.81-1.98-3.01-2.6c-1.19-0.62-2.49-1-3.9-1.14
					c-1.41-0.13-2.71,0-3.9,0.41c-1.19,0.4-2.19,1.08-3.01,2.03s-1.22,2.18-1.22,3.7c0,1.14,0.54,2.13,1.63,2.97
					c1.08,0.84,2.44,1.66,4.06,2.48c1.62,0.82,3.37,1.64,5.24,2.48c1.87,0.84,3.62,1.8,5.24,2.89c1.63,1.08,2.98,2.33,4.07,3.74
					c1.08,1.41,1.62,3.06,1.62,4.96c0,2.33-0.74,4.29-2.24,5.89c-1.49,1.6-3.33,2.83-5.53,3.7c-2.19,0.87-4.59,1.33-7.19,1.38
					c-2.6,0.05-5.01-0.3-7.24-1.06c-2.22-0.76-4.08-1.96-5.56-3.62c-1.49-1.65-2.24-3.75-2.24-6.3h4.87c0,2.28,0.43,4.14,1.3,5.61
					c0.87,1.46,1.96,2.57,3.29,3.33c1.33,0.76,2.76,1.15,4.31,1.18c1.55,0.03,2.98-0.24,4.31-0.81c1.33-0.57,2.42-1.43,3.29-2.6
					c0.87-1.17,1.3-2.59,1.3-4.27c0-1.46-0.54-2.71-1.63-3.74c-1.08-1.03-2.44-1.98-4.06-2.85c-1.62-0.86-3.37-1.71-5.24-2.52
					c-1.87-0.82-3.62-1.71-5.24-2.68c-1.63-0.97-2.98-2.1-4.07-3.37c-1.08-1.27-1.62-2.8-1.62-4.59c0-2.06,0.69-3.79,2.07-5.2
					c1.38-1.41,3.13-2.48,5.24-3.21c2.11-0.73,4.39-1.11,6.83-1.14c2.44-0.03,4.72,0.29,6.83,0.93c2.11,0.65,3.87,1.65,5.28,3.01
					c1.41,1.35,2.11,3.03,2.11,5.04H592.24z"/>
			</g>
			<g>
				<path class="st0" d="M637.43,800h-1.46l9.92-19.67l-17.8-36.41h9.02l13.33,27.39l13.82-27.39h1.46L637.43,800z"/>
			</g>
			<g>
				<path class="st0" d="M671.73,761.88c0-4.17,1-7.65,3.01-10.44c2-2.79,4.52-4.89,7.56-6.3c3.03-1.41,6.3-2.11,9.79-2.11
					c3.49,0,6.76,0.69,9.79,2.07c3.03,1.38,5.55,3.48,7.56,6.3c2,2.82,3.01,6.31,3.01,10.48c0,4.17-1,7.65-3.01,10.44
					c-2.01,2.79-4.53,4.89-7.56,6.3c-3.04,1.41-6.3,2.11-9.79,2.11c-3.5,0-6.76-0.7-9.79-2.11c-3.04-1.41-5.56-3.51-7.56-6.3
					C672.73,769.54,671.73,766.05,671.73,761.88z M679.86,761.88c0,3.9,0.61,7.17,1.83,9.79c1.22,2.63,2.75,4.59,4.59,5.89
					c1.84,1.3,3.83,1.95,5.98,1.95c2.14,0,4.13-0.65,5.97-1.95c1.84-1.3,3.37-3.27,4.59-5.89c1.22-2.63,1.83-5.89,1.83-9.79
					c0-3.85-0.61-7.07-1.83-9.67c-1.22-2.6-2.75-4.55-4.59-5.85c-1.84-1.3-3.83-1.96-5.97-1.99c-2.14-0.03-4.13,0.61-5.98,1.91
					c-1.84,1.3-3.37,3.25-4.59,5.85C680.47,754.73,679.86,757.98,679.86,761.88z"/>
			</g>
			<g>
				<path class="st0" d="M758.62,780.49h-8.13v-11.7c-0.97,2.44-2.34,4.56-4.1,6.38c-1.76,1.82-3.66,3.24-5.69,4.27
					c-2.03,1.03-4.1,1.6-6.22,1.71c-2.11,0.11-4.04-0.32-5.77-1.3c-1.73-0.98-3.14-2.54-4.23-4.67c-1.09-2.14-1.63-4.97-1.63-8.49
					V744h8.13v22.68c0,3.57,0.42,6.31,1.26,8.21c0.84,1.9,1.89,3.12,3.17,3.66c1.27,0.54,2.7,0.53,4.27-0.04
					c1.57-0.57,3.07-1.52,4.51-2.85c1.43-1.33,2.72-2.95,3.86-4.87c1.14-1.92,1.95-3.91,2.44-5.98V744h8.13V780.49z"/>
			</g>
		</g>
	</g>
	<g>
		<g>
			<g>
				<path class="st0" d="M509.7,360.79c-12.21,0-20.75-4.79-21.35-5.13l-1.36-0.78l-0.38-1.52c-6.51-25.69,19.24-54.23,20.34-55.44
					c32.53-36.76,65.12-16.04,65.45-15.83l1.69,1.11l-0.02,2.03c-0.5,43.27-31.02,62.97-34.09,64.84
					C529.04,358.34,518.43,360.79,509.7,360.79z M493.43,349.93c5.06,2.33,22.98,8.77,42.21-5.88l0.37-0.25
					c1.2-0.71,29.14-17.74,30.59-56.49c-6.47-3.29-29.69-12.09-54.15,15.56C512.18,303.18,489.41,328.45,493.43,349.93z"/>
			</g>
			<g>
				
					<rect x="477.96" y="315.12" transform="matrix(0.7662 -0.6427 0.6427 0.7662 -80.8897 415.3384)" class="st0" width="104.64" height="7.41"/>
			</g>
			<g>
				<path class="st0" d="M491.2,356.27l-0.96-7.35c51.67-6.74,76.62-63.97,76.87-64.55l6.82,2.91
					C572.85,289.8,547.02,348.99,491.2,356.27z"/>
			</g>
			<g>
				<path class="st0" d="M493.56,352.21l-7.2-1.75c12.7-52.24,79.07-68.9,81.89-69.58l1.75,7.2
					C569.35,288.24,505.18,304.39,493.56,352.21z"/>
			</g>
		</g>
		<g>
			<g>
				<path class="st0" d="M464.56,312.78l-1.41-0.68c-23.87-11.53-29.17-49.6-29.38-51.22c-7.26-48.55,29.58-60.19,29.95-60.3
					l1.94-0.58l1.54,1.32c32.82,28.2,28.28,64.24,27.74,67.79c-1.66,32.83-27.8,42.73-28.91,43.13L464.56,312.78z M464,208.38
					c-6.68,2.83-28.36,14.97-22.9,51.47c0.05,0.41,4.76,34.09,23.81,44.82c5.04-2.38,21.49-11.96,22.63-36.11l0.05-0.44
					C487.82,266.74,492.74,234.4,464,208.38z"/>
			</g>
			<g>
				<rect x="461.07" y="204.13" class="st0" width="7.41" height="104.63"/>
			</g>
			<g>
				<path class="st0" d="M468.33,310.46l-6.24-3.99c28.05-43.91,0.26-99.81-0.02-100.37l6.61-3.35
					C469.91,205.18,498.64,263.01,468.33,310.46z"/>
			</g>
			<g>
				<path class="st0" d="M460.76,310.43c-31.85-43.31-1.93-104.86-0.64-107.46l6.64,3.29c-0.3,0.6-29.18,60.13-0.03,99.78
					L460.76,310.43z"/>
			</g>
		</g>
		<g>
			<path class="st0" d="M465.56,458.73c-7.89,0-13.62-3.55-13.62-8.45V325.31c0-4.89,5.73-8.43,13.62-8.43
				c7.9,0,13.63,3.55,13.63,8.43v124.98C479.19,455.18,473.46,458.73,465.56,458.73z M459.35,449.82c0.64,0.51,2.76,1.5,6.21,1.5
				c3.46,0,5.58-0.99,6.22-1.5V325.78c-0.64-0.51-2.77-1.5-6.22-1.5c-3.44,0-5.57,0.99-6.21,1.5V449.82z"/>
		</g>
		<g>
			<g>
				<path class="st0" d="M420.99,360.79c-8.73,0-19.35-2.45-30.28-10.71c-3.07-1.87-33.59-21.57-34.09-64.84l-0.02-2.03l1.7-1.11
					c0.33-0.21,32.93-20.94,65.49,15.87c1.06,1.16,26.81,29.7,20.3,55.39l-0.38,1.52l-1.36,0.78
					C441.74,356,433.2,360.79,420.99,360.79z M364.08,287.32c1.46,38.75,29.38,55.77,30.59,56.49l0.36,0.24
					c19.23,14.64,37.14,8.21,42.21,5.88c4.04-21.53-18.74-46.75-18.98-47.01C393.78,275.24,370.55,284.03,364.08,287.32z"/>
			</g>
			<g>
				
					<rect x="396.7" y="266.5" transform="matrix(0.6427 -0.7661 0.7661 0.6427 -101.1938 420.6496)" class="st0" width="7.41" height="104.64"/>
			</g>
			<g>
				<path class="st0" d="M439.49,356.27c-55.83-7.29-81.65-66.47-82.72-68.99l6.82-2.91c0.25,0.58,25.28,57.81,76.86,64.55
					L439.49,356.27z"/>
			</g>
			<g>
				<path class="st0" d="M437.13,352.21c-11.62-47.82-75.8-63.97-76.44-64.13l1.75-7.2c2.82,0.68,69.2,17.34,81.89,69.58
					L437.13,352.21z"/>
			</g>
		</g>
		<g>
			<g>
				<path class="st0" d="M506.68,443.25c-12.22,0-20.75-4.79-21.35-5.13l-1.36-0.78l-0.38-1.52c-6.51-25.7,19.24-54.23,20.34-55.43
					c32.53-36.77,65.12-16.04,65.44-15.83l1.69,1.11l-0.02,2.03c-0.49,43.27-31.02,62.97-34.09,64.85
					C526.02,440.8,515.41,443.25,506.68,443.25z M490.42,432.39c5.05,2.33,22.97,8.77,42.21-5.88l0.37-0.25
					c1.2-0.71,29.14-17.74,30.58-56.49c-6.47-3.29-29.69-12.09-54.14,15.56C509.16,385.64,486.4,410.9,490.42,432.39z"/>
			</g>
			<g>
				
					<rect x="474.94" y="397.57" transform="matrix(0.7662 -0.6427 0.6427 0.7662 -134.5857 432.6798)" class="st0" width="104.63" height="7.41"/>
			</g>
			<g>
				<path class="st0" d="M488.18,438.73l-0.96-7.35c51.67-6.74,76.62-63.97,76.86-64.54l6.82,2.91
					C569.83,372.26,544,431.44,488.18,438.73z"/>
			</g>
			<g>
				<path class="st0" d="M490.54,434.67l-7.2-1.75c12.7-52.24,79.07-68.89,81.89-69.58l1.75,7.2
					C566.34,370.7,502.16,386.85,490.54,434.67z"/>
			</g>
		</g>
		<g>
			<g>
				<path class="st0" d="M422.87,443.25c-8.73,0-19.34-2.45-30.27-10.71c-3.06-1.87-33.59-21.57-34.09-64.85l-0.02-2.03l1.7-1.11
					c0.32-0.21,32.93-20.94,65.49,15.88c1.06,1.16,26.8,29.69,20.29,55.39l-0.38,1.52l-1.35,0.78
					C443.63,438.46,435.09,443.25,422.87,443.25z M365.98,369.78c1.45,38.75,29.38,55.78,30.59,56.5l0.36,0.24
					c19.23,14.64,37.13,8.21,42.21,5.88c4.03-21.49-18.74-46.75-18.97-47.01C395.68,357.69,372.44,366.48,365.98,369.78z"/>
			</g>
			<g>
				
					<rect x="398.59" y="348.96" transform="matrix(0.6428 -0.7661 0.7661 0.6428 -163.6886 451.5273)" class="st0" width="7.41" height="104.63"/>
			</g>
			<g>
				<path class="st0" d="M441.37,438.73c-55.82-7.29-81.65-66.47-82.73-68.98l6.82-2.91c0.25,0.58,25.29,57.81,76.87,64.54
					L441.37,438.73z"/>
			</g>
			<g>
				<path class="st0" d="M439.02,434.67c-11.64-47.9-75.8-63.97-76.44-64.13l1.75-7.2c2.82,0.68,69.2,17.34,81.9,69.58
					L439.02,434.67z"/>
			</g>
		</g>
	</g>
</g>
</svg>
